<?xml version="1.0" encoding="UTF-8" standalone="no"?>
<!-- Created with Inkscape (http://www.inkscape.org/) -->

<svg
   width="200"
   height="200"
   viewBox="0 0 52.916667 52.916667"
   version="1.1"
   id="svg1"
   inkscape:version="1.4.2 (ebf0e940d0, 2025-05-08)"
   sodipodi:docname="match3.svg"
   xmlns:inkscape="http://www.inkscape.org/namespaces/inkscape"
   xmlns:sodipodi="http://sodipodi.sourceforge.net/DTD/sodipodi-0.dtd"
   xmlns="http://www.w3.org/2000/svg"
   xmlns:svg="http://www.w3.org/2000/svg">
  <sodipodi:namedview
     id="namedview1"
     pagecolor="#ffffff"
     bordercolor="#000000"
     borderopacity="0.25"
     inkscape:showpageshadow="2"
     inkscape:pageopacity="0.0"
     inkscape:pagecheckerboard="0"
     inkscape:deskcolor="#d1d1d1"
     inkscape:document-units="mm"
     showguides="true"
     inkscape:zoom="4.6395623"
     inkscape:cx="93.327769"
     inkscape:cy="97.315214"
     inkscape:window-width="1536"
     inkscape:window-height="902"
     inkscape:window-x="0"
     inkscape:window-y="0"
     inkscape:window-maximized="1"
     inkscape:current-layer="layer1">
    <sodipodi:guide
       position="-21.498703,49.536013"
       orientation="1,0"
       id="guide2"
       inkscape:locked="false" />
    <sodipodi:guide
       position="41.323661,51.204055"
       orientation="0,-1"
       id="guide17"
       inkscape:locked="false" />
  </sodipodi:namedview>
  <defs
     id="defs1" />
  <g
     inkscape:label="Layer 1"
     inkscape:groupmode="layer"
     id="layer1">
    <path
       id="path4"
       style="display:inline;fill:#000000;fill-opacity:0.0846354;stroke:none;stroke-width:0.298898"
       d="m 31.273543,21.94078 c 0.703052,0.950017 1.107399,2.201574 1.107426,3.81372 -1.7e-4,10.101379 -8.966824,12.996666 -14.106115,8.684742 4.842109,5.754147 15.164266,3.211623 15.164449,-7.626408 -3.9e-5,-2.301953 -0.824308,-3.868949 -2.16576,-4.872054 z" />
    <path
       id="path6"
       style="display:inline;fill:#ffffff;stroke:none;stroke-width:0.298898;fill-opacity:0.22497986"
       inkscape:label="path1"
       d="M 23.622847 20.449398 C 19.314535 20.449485 15.821852 22.074051 15.821773 26.812834 C 15.821838 30.647754 17.119855 33.435126 19.004525 35.192684 C 17.409476 33.423568 16.350998 30.808683 16.35094 27.342 C 16.351019 22.603217 19.843702 20.978651 24.152014 20.978564 C 24.488682 20.978734 24.824841 21.002951 25.158671 21.050911 C 25.493023 21.002881 25.830201 20.978667 26.167395 20.978564 C 28.540612 20.978481 30.665902 21.471183 32.096749 22.706108 C 30.693526 21.081501 28.324746 20.449302 25.638228 20.449398 C 25.301034 20.449501 24.963856 20.473715 24.629504 20.521745 C 24.295674 20.473785 23.959515 20.449568 23.622847 20.449398 z M 32.096749 22.706108 C 32.098747 22.708421 32.100955 22.710508 32.10295 22.712826 C 32.101833 22.711527 32.100968 22.709989 32.099849 22.708691 C 32.098837 22.707817 32.097762 22.706982 32.096749 22.706108 z M 32.10295 22.712826 C 32.111466 22.722723 32.118794 22.73386 32.127238 22.743831 C 32.118788 22.733855 32.111472 22.722729 32.10295 22.712826 z M 32.127238 22.743831 C 32.243924 22.881596 32.352278 23.027944 32.454867 23.17998 C 32.352292 23.027954 32.243903 22.881591 32.127238 22.743831 z M 32.454867 23.17998 C 32.489086 23.230697 32.520974 23.283707 32.553569 23.336043 C 32.520962 23.283688 32.4891 23.230715 32.454867 23.17998 z M 32.553569 23.336043 C 32.628842 23.456906 32.699608 23.582089 32.765959 23.711731 C 32.699625 23.58213 32.628818 23.456872 32.553569 23.336043 z M 32.765959 23.711731 C 32.795417 23.769287 32.825642 23.826049 32.853292 23.885364 C 32.825633 23.826024 32.795428 23.769311 32.765959 23.711731 z M 32.853292 23.885364 C 32.939476 24.070264 33.019394 24.261295 33.087386 24.463623 C 33.01934 24.26109 32.939565 24.070436 32.853292 23.885364 z M 19.004525 35.192684 C 19.021358 35.211354 19.036148 35.233114 19.053101 35.251595 C 19.074153 35.270892 19.09805 35.284747 19.119246 35.303788 C 19.079982 35.268513 19.043294 35.228839 19.004525 35.192684 z M 19.119246 35.303788 C 19.401973 35.557792 19.696071 35.789377 20.00188 35.997803 C 19.696388 35.789552 19.401701 35.557527 19.119246 35.303788 z M 20.00188 35.997803 C 20.063733 36.039968 20.127813 36.075842 20.190499 36.116142 C 20.127942 36.075928 20.063607 36.039874 20.00188 35.997803 z M 20.190499 36.116142 C 20.45061 36.283351 20.717157 36.43424 20.989933 36.569344 C 20.717238 36.434259 20.450535 36.283316 20.190499 36.116142 z M 20.989933 36.569344 C 21.070105 36.609059 21.149113 36.650225 21.230229 36.687166 C 21.149299 36.650309 21.069924 36.608963 20.989933 36.569344 z M 21.230229 36.687166 C 21.559021 36.836908 21.893353 36.967983 22.234819 37.072156 C 21.893572 36.968025 21.558817 36.83681 21.230229 36.687166 z M 22.234819 37.072156 C 22.286148 37.087819 22.338291 37.09783 22.389848 37.112463 C 22.338407 37.097864 22.286033 37.08778 22.234819 37.072156 z M 22.389848 37.112463 C 22.689904 37.197622 22.993383 37.263721 23.299353 37.314001 C 22.99348 37.263721 22.68981 37.197601 22.389848 37.112463 z M 23.299353 37.314001 C 23.390935 37.329056 23.481821 37.34393 23.573755 37.355859 C 23.482009 37.343952 23.390748 37.329021 23.299353 37.314001 z M 23.573755 37.355859 C 23.92739 37.401756 24.282363 37.432162 24.638289 37.431824 C 24.282509 37.432152 23.927247 37.40173 23.573755 37.355859 z M 24.638289 37.431824 C 24.648835 37.431814 24.659267 37.430324 24.669812 37.430273 C 24.659292 37.430324 24.64881 37.431814 24.638289 37.431824 z M 24.669812 37.430273 C 25.015918 37.428616 25.361084 37.398136 25.704891 37.352759 C 25.361095 37.398128 25.015907 37.428622 24.669812 37.430273 z M 25.704891 37.352759 C 25.797838 37.340493 25.889813 37.326362 25.982393 37.310901 C 25.890076 37.32631 25.797573 37.340526 25.704891 37.352759 z M 25.982393 37.310901 C 26.29964 37.257946 26.614221 37.188985 26.924972 37.098511 C 26.614419 37.18893 26.299434 37.257955 25.982393 37.310901 z M 26.924972 37.098511 C 26.963017 37.087434 27.001773 37.080695 27.039693 37.069055 C 27.001816 37.080681 26.962974 37.087446 26.924972 37.098511 z M 27.039693 37.069055 C 27.382722 36.963771 27.718259 36.830205 28.048417 36.678898 C 27.71844 36.830103 27.382526 36.963821 27.039693 37.069055 z M 28.048417 36.678898 C 28.130568 36.641254 28.210638 36.599502 28.291813 36.559009 C 28.210804 36.599417 28.130397 36.641328 28.048417 36.678898 z M 28.291813 36.559009 C 28.566559 36.421964 28.835143 36.269289 29.096932 36.099605 C 28.835285 36.269182 28.566401 36.422035 28.291813 36.559009 z M 29.096932 36.099605 C 29.156235 36.06117 29.217181 36.027577 29.275732 35.987467 C 29.217295 36.027499 29.156118 36.061242 29.096932 36.099605 z M 29.275732 35.987467 C 29.581113 35.778275 29.874588 35.544587 30.156816 35.289836 C 29.874604 35.544574 29.581095 35.778283 29.275732 35.987467 z M 30.156816 35.289836 C 30.221263 35.231662 30.281823 35.167967 30.344918 35.107418 C 30.281944 35.167844 30.221137 35.231776 30.156816 35.289836 z M 30.344918 35.107418 C 30.574665 34.886966 30.794681 34.650882 31.004826 34.398934 C 30.794769 34.650785 30.574561 34.887038 30.344918 35.107418 z M 31.004826 34.398934 C 31.062488 34.329799 31.121881 34.264251 31.177942 34.192745 C 31.121975 34.264122 31.062389 34.32992 31.004826 34.398934 z M 31.177942 34.192745 C 31.424013 33.878921 31.654884 33.544046 31.867306 33.184538 C 31.654998 33.543848 31.423863 33.879069 31.177942 34.192745 z M 31.867306 33.184538 C 31.908519 33.114787 31.94425 33.038967 31.984094 32.967497 C 31.944307 33.038859 31.908458 33.11489 31.867306 33.184538 z M 31.984094 32.967497 C 32.156104 32.658982 32.314159 32.333957 32.459001 31.993396 C 32.31421 32.333827 32.156032 32.659088 31.984094 32.967497 z M 32.459001 31.993396 C 32.503288 31.889269 32.548159 31.786843 32.589742 31.67972 C 32.548217 31.786681 32.503221 31.889422 32.459001 31.993396 z M 32.589742 31.67972 C 32.752497 31.260493 32.898644 30.823467 33.017106 30.358354 C 32.898689 30.823243 32.75241 31.260674 32.589742 31.67972 z M 33.017106 30.358354 C 33.031893 30.300304 33.04129 30.237284 33.055347 30.17852 C 33.041306 30.237222 33.031876 30.300364 33.017106 30.358354 z M 33.055347 30.17852 C 33.155543 29.759615 33.233881 29.320132 33.295125 28.864905 C 33.233882 29.320007 33.155522 29.759722 33.055347 30.17852 z M 33.295125 28.864905 C 33.313172 28.730799 33.33025 28.596502 33.344735 28.459245 C 33.330269 28.596325 33.313144 28.730969 33.295125 28.864905 z M 33.344735 28.459245 C 33.400479 27.931005 33.439293 27.387764 33.439303 26.812834 C 33.439293 27.387767 33.400479 27.931001 33.344735 28.459245 z M 33.439303 26.812834 C 33.439296 26.416023 33.4061 26.049092 33.358687 25.695072 C 33.406085 26.049009 33.439296 26.416122 33.439303 26.812834 z M 33.358687 25.695072 C 33.341088 25.563654 33.323612 25.432153 33.299776 25.306466 C 33.323595 25.432082 33.341097 25.563731 33.358687 25.695072 z M 33.299776 25.306466 C 33.286982 25.23899 33.275058 25.170771 33.260502 25.104928 C 33.275054 25.170746 33.286985 25.239017 33.299776 25.306466 z M 33.260502 25.104928 C 33.212982 24.889988 33.158798 24.681122 33.09307 24.48326 C 33.15886 24.681271 33.212948 24.889812 33.260502 25.104928 z " />
    <path
       id="path1"
       style="display:inline;fill:#ff2a2a;stroke:#000000;stroke-width:0.298898"
       d="m 23.622808,20.449202 c -4.308312,8.7e-5 -7.80087,1.62508 -7.800949,6.363863 2.39e-4,14.159036 17.617233,14.158857 17.617472,0 -7.9e-5,-4.738953 -3.492876,-6.364016 -7.801342,-6.363863 -0.337194,1.03e-4 -0.674027,0.02426 -1.008379,0.07229 -0.33383,-0.04796 -0.670134,-0.07212 -1.006802,-0.07229 z"
       sodipodi:nodetypes="cccccc"
       inkscape:label="path1" />
    <path
       id="path9"
       style="fill:#1a1a1a;fill-opacity:0.2674925;stroke:none;stroke-width:0.299024;stroke-dasharray:none;opacity:0.265"
       d="M 25.638228 20.449398 C 25.342255 20.449488 25.046478 20.467659 24.752494 20.504692 A 3.8208525 3.8208525 0 0 0 27.074833 23.517428 A 3.8208525 3.8208525 0 0 0 31.523657 22.372278 A 3.8208525 3.8208525 0 0 0 31.542261 22.15472 C 30.111724 20.936009 27.997238 20.449314 25.638228 20.449398 z " />
    <path
       style="baseline-shift:baseline;display:inline;overflow:visible;vector-effect:none;fill:#1a1a1a;enable-background:accumulate;stop-color:#000000"
       d="m 24.211051,21.936883 1.475358,0.0043 c 2.184433,0.0064 -1.009467,-4.248054 -2.742282,-5.578145 -1.732814,-1.330091 -6.667869,-3.315758 -6.097541,-1.207081 l 0.385109,1.423868 c 0.450548,1.665811 3.445352,-0.09608 4.81424,0.954665 1.368887,1.050744 0.439459,4.397326 2.165116,4.402375 z"
       id="path11"
       sodipodi:nodetypes="sssssss" />
    <g
       id="g17"
       transform="translate(-4.7903226,2.110023)">
      <path
         id="path16"
         style="fill:#ff9955;fill-opacity:1;stroke:#000000;stroke-width:0.299024;stroke-dasharray:none"
         d="m 29.490781,16.371322 a 3.8208525,3.8208525 0 0 0 3.671094,2.761072 3.8208525,3.8208525 0 0 0 3.671093,-2.762105 3.8208525,3.8208525 0 0 0 -3.671093,-2.762622 3.8208525,3.8208525 0 0 0 -3.671094,2.762622 3.8208525,3.8208525 0 0 0 0,0.001 z" />
      <path
         id="rect17"
         style="fill:#ffccaa;fill-opacity:0.292947;stroke:none;stroke-width:0.299024;stroke-dasharray:none;stroke-opacity:0.283638"
         d="m 33.1621,13.607764 a 3.8208525,3.8208525 0 0 0 -3.635437,2.645317 h 7.270358 A 3.8208525,3.8208525 0 0 0 33.1621,13.607764 Z" />
    </g>
    <g
       id="g8"
       transform="rotate(22.522735,21.764553,5.5102812)"
       inkscape:transform-center-x="-3.4647404"
       inkscape:transform-center-y="1.3133952">
      <path
         id="path7"
         style="fill:#ff9955;fill-opacity:1;stroke:#000000;stroke-width:0.299024;stroke-dasharray:none"
         d="m 29.490781,16.371322 a 3.8208525,3.8208525 0 0 0 3.671094,2.761072 3.8208525,3.8208525 0 0 0 3.671093,-2.762105 3.8208525,3.8208525 0 0 0 -3.671093,-2.762622 3.8208525,3.8208525 0 0 0 -3.671094,2.762622 3.8208525,3.8208525 0 0 0 0,0.001 z" />
      <path
         id="path8"
         style="fill:#ffccaa;fill-opacity:0.292947;stroke:none;stroke-width:0.299024;stroke-dasharray:none;stroke-opacity:0.283638"
         d="m 33.1621,13.607764 a 3.8208525,3.8208525 0 0 0 -3.635437,2.645317 h 7.270358 A 3.8208525,3.8208525 0 0 0 33.1621,13.607764 Z" />
    </g>
    <rect
       style="fill:#ffccaa;fill-opacity:0.292947;stroke:none;stroke-width:0.171328;stroke-dasharray:none;stroke-opacity:0.283638"
       id="rect18"
       width="3.7067976"
       height="1.2546083"
       x="18.762098"
       y="25.890553"
       ry="0.62730414"
       rx="0.39314497" />
  </g>
</svg>
